<?xml version="1.0" encoding="UTF-8"?>
<svg id="Layer_1" xmlns="http://www.w3.org/2000/svg" version="1.1" viewBox="0 0 1080 1080">
  <defs>
    <style>
      .st0 { fill: #fff; }
      .st1 { fill: #fe5722; }
    </style>
  </defs>
  <rect class="st1" x="324.23" y="324.23" width="431.55" height="431.55" rx="57.61" ry="57.61"/>
  <path class="st0" d="M407.54,514.4c1.92,1.87,5.13.26,6.49-1.55,2.05-2.72,2.12-6.47,1.27-9.65.28-.3,1.84,1.47,2.06,1.74,4.51,5.52,6.44,15.21,6.04,22.2-.49,8.42-6.35,18.78-4.61,26.67,1.61,7.28,10.16,7.13,11.84.2,1.04-4.32-.16-9.63.1-14.13.45-7.84,3.64-13.69,9.32-18.89,3.65-3.33,9.22-6.36,8.83-12.14.51-.11.57.25.78.57,1.57,2.3,1.1,6.21-.29,8.51.21.18.83-.36,1.03-.5,3.17-2.34,7.72-6.4,9.55-9.88,2.02-3.83,1.97-7.8.2-11.7,2.01.33,3.8,2.12,5.14,3.56,9.43,10.16,13.25,29.66,13.99,43.17.21,3.89.71,11.73-.27,15.21-2.25,8.01-13.53,8.43-16.28.62-1.51-4.27-.2-11.36-.61-16.08-.72-8.4-11.79-8.76-12.52.49-.48,6.08.75,12.49-.6,18.54-3.75,16.77-23.16,22.9-37.55,15.01-9.23-5.07-13.05-13.73-13.56-23.97-.34-6.8.88-15.81-.11-22.22-1.11-7.15-10.86-7.9-12.12-.57-.23,1.36,0,2.63-.01,3.89-.15,10.57.63,21.99,0,32.41-.7,11.51-11.82,13.93-16.76,6.65-1.35-2-1.86-4.44-1.78-6.85.41-13.1-.96-26.89-.1-39.8.38-5.68,2.66-12.04,5.26-17.06,2.21-4.26,5.72-8.09,6.26-13,2.17,2.76,1.17,6.96.24,10.06,5.64-5.92,15.46-14.47,14.95-23.43-.12-2.05-.93-3.92-1.71-5.77,8.14,3.87,13.8,13.82,14.46,22.7.27,3.6-.88,10.71.2,13.54.13.34.63,1.23.87,1.46Z"/>
  <path class="st0" d="M463.05,565.33c7.86-.75,11.78,7.14,8,13.9-5.54,9.91-20.7,19.34-31.48,22.23-15.67,4.2-37.44,1.36-49.89-9.69-4.85-4.3-6.09-11.74.05-15.42s10.53,1.11,15.6,3.92c16.01,8.88,35.02,5.49,47.82-7.18,2.95-2.92,5.31-7.32,9.9-7.76Z"/>
  <path class="st0" d="M541.23,531.45c-1.62-4.48-4.48-7.94-8.5-10.28-3.98-2.31-9.56-3.48-16.61-3.48s-12.64,1.18-16.61,3.52c-4.01,2.37-6.87,5.82-8.49,10.28-1.58,4.35-2.38,9.7-2.38,15.91s.78,11.53,2.33,15.79c1.59,4.38,4.44,7.74,8.47,9.97,3.96,2.2,9.58,3.32,16.69,3.32s12.71-1.07,16.67-3.19c4.04-2.15,6.89-5.47,8.49-9.86,1.54-4.27,2.33-9.66,2.33-16.04s-.81-11.58-2.38-15.95ZM516.13,568.94c-4.9,0-8.65-.8-11.13-2.38-2.48-1.57-4.12-3.85-5.03-6.99-.94-3.23-1.41-7.33-1.41-12.18s.49-9.06,1.46-12.37c.93-3.18,2.65-5.63,5.1-7.29,2.48-1.67,6.19-2.52,11.02-2.52s8.53.84,11.01,2.52c2.45,1.66,4.17,4.12,5.11,7.33.97,3.34,1.46,7.49,1.46,12.33s-.48,9.19-1.42,12.42c-.91,3.13-2.55,5.37-5.01,6.85-2.49,1.51-6.24,2.27-11.15,2.27Z"/>
  <path class="st0" d="M599.39,523.36v47.5c0,2.66-2.15,4.81-4.81,4.81h-7.91c-1.8,0-3.45-1-4.27-2.6l-24.25-46.97h-.35v44.77c0,2.66-2.15,4.81-4.81,4.81h0c-2.66,0-4.81-2.15-4.81-4.81v-47.5c0-2.66,2.15-4.81,4.81-4.81h8.19c1.81,0,3.47,1.02,4.29,2.63l23.87,46.95h.43v-44.78c0-2.66,2.15-4.81,4.81-4.81h0c2.66,0,4.81,2.15,4.81,4.81Z"/>
  <path class="st0" d="M640.12,518.56h-14.42c-1.1,0-2.08.71-2.43,1.75l-17.24,52.01c-.55,1.65.68,3.36,2.43,3.36h4.34c1.09,0,2.07-.7,2.42-1.73l3.57-10.53c.35-1.04,1.32-1.73,2.42-1.73h23.3c1.09,0,2.07.7,2.42,1.73l3.57,10.53c.35,1.04,1.32,1.73,2.42,1.73h4.34c1.74,0,2.97-1.7,2.43-3.36l-17.15-52.01c-.35-1.05-1.32-1.76-2.43-1.76ZM622.77,550.79l7.67-23.18c.35-1.05,1.32-1.75,2.43-1.75h0c1.1,0,2.08.71,2.43,1.75l7.67,23.18c.55,1.65-.68,3.36-2.43,3.36h-15.35c-1.74,0-2.97-1.7-2.43-3.36Z"/>
  <path class="st0" d="M704.08,557.37c-1.28-2.24-.46-5.03,1.74-6.37,1.77-1.07,3.22-2.39,4.33-3.95,2.07-2.92,3.13-6.54,3.13-10.78s-.87-7.44-2.57-10.06c-1.72-2.64-4.3-4.6-7.68-5.84-3.29-1.2-7.39-1.82-12.19-1.82h-21.18c-2.58,0-4.67,2.09-4.67,4.67v47.79c0,2.58,2.09,4.67,4.67,4.67h.28c2.58,0,4.67-2.09,4.67-4.67v-11.7c0-2.58,2.09-4.67,4.67-4.67h9.94c1.69,0,3.24.91,4.07,2.38l9.15,16.27c.83,1.47,2.38,2.38,4.07,2.38h0c3.58,0,5.83-3.87,4.05-6.98l-6.47-11.32ZM674.61,530.68c0-2.58,2.09-4.67,4.67-4.67h11.56c4.34,0,7.56.87,9.57,2.57,2,1.7,2.97,4.24,2.97,7.77,0,2.09-.39,3.99-1.17,5.64-.76,1.61-2,2.84-3.8,3.77-1.83.94-4.34,1.41-7.47,1.41h-11.65c-2.58,0-4.67-2.09-4.67-4.67v-11.83Z"/>
</svg>
