<?xml version="1.0" encoding="UTF-8"?>
<svg xmlns="http://www.w3.org/2000/svg" viewBox="210 448 210 222">
  <path fill="#fe5722" d="M294.02,492.45c3.56,3.47,9.52.47,12.06-2.89,3.82-5.06,3.93-12.01,2.36-17.92,1.1.02,3.42,2.72,3.83,3.23,8.37,10.26,11.96,28.24,11.21,41.22-.91,15.64-11.8,34.87-8.55,49.53,2.99,13.51,18.87,13.24,21.99.37,1.94-8.02-.29-17.88.18-26.25.83-14.56,6.76-25.43,17.31-35.07,6.77-6.19,17.12-11.81,16.4-22.55.94-.2,1.46.55,1.85,1.13,2.91,4.26,1.65,11.46-.94,15.72.39.33,1.55-.67,1.91-.94,5.89-4.35,14.34-11.88,17.74-18.35,3.74-7.12,3.66-14.48.38-21.72,3.73.6,7.06,3.93,9.55,6.62,17.52,18.87,24.61,55.09,25.98,80.17.39,7.23,1.32,21.78-.5,28.25-4.18,14.87-25.13,15.65-30.24,1.16-2.8-7.93-.38-21.1-1.13-29.86-1.34-15.6-21.89-16.27-23.25.91-.89,11.3,1.39,23.19-1.12,34.42-6.96,31.14-43.02,42.54-69.73,27.87-17.14-9.41-24.24-25.49-25.18-44.51-.63-12.64,1.63-29.36-.21-41.26-2.06-13.28-20.17-14.68-22.51-1.07-.43,2.52,0,4.89-.02,7.22-.28,19.63,1.17,40.83,0,60.19-1.3,21.3-21.81,25.84-31.03,12.48-2.51-3.63-3.56-8.05-3.42-12.47.8-24.44-1.78-50.2-.17-74.31.71-10.55,4.93-22.36,9.77-31.68,4.1-7.91,10.62-15.02,11.62-24.14,4.03,5.13,2.18,12.92.45,18.68,10.48-11,28.72-26.86,27.76-43.51-.22-3.8-1.73-7.28-3.17-10.71,15.11,7.19,25.63,25.67,26.85,42.15.49,6.68-1.63,19.89.37,25.15.24.63,1.17,2.28,1.61,2.72Z"/>
  <path fill="#fe5722" d="M397.11,587.05c14.6-1.39,21.87,13.26,14.86,25.81-10.29,18.41-38.44,35.92-58.46,41.28-29.09,7.79-69.53,2.53-92.66-17.99-9-7.98-11.3-21.8.09-28.64,11.76-7.06,19.56,2.07,28.98,7.29,29.74,16.48,65.04,10.19,88.8-13.34,5.47-5.42,9.86-13.6,18.38-14.41Z"/>
</svg>
